<svg width="24" height="24" viewBox="0 0 24 24" fill="none" xmlns="http://www.w3.org/2000/svg">
<path d="M20.25 4H3.75002C3.25274 4 2.77582 4.19754 2.42419 4.54917C2.07256 4.90081 1.87502 5.37772 1.87502 5.875V20.875C1.87352 21.2321 1.97494 21.582 2.16714 21.8829C2.35934 22.1839 2.63418 22.4231 2.95877 22.5719C3.20793 22.6885 3.47958 22.7493 3.7547 22.75C4.19498 22.7489 4.62068 22.5921 4.95658 22.3075L4.97439 22.2925L7.87502 19.75H20.25C20.7473 19.75 21.2242 19.5525 21.5758 19.2008C21.9275 18.8492 22.125 18.3723 22.125 17.875V5.875C22.125 5.37772 21.9275 4.90081 21.5758 4.54917C21.2242 4.19754 20.7473 4 20.25 4ZM19.875 17.5H7.73439C7.29299 17.5 6.86572 17.6557 6.52783 17.9397L6.51002 17.9547L4.12502 20.0444V6.25H19.875V17.5Z" fill="#1B1B1B"/>
</svg>
