<svg width="24" height="24" viewBox="0 0 24 24" fill="none" xmlns="http://www.w3.org/2000/svg">
<g id="mingcute:more-1-fill">
<g id="Group">
<path id="Vector" d="M4.79167 9.58337C5.3 9.58337 5.78751 9.78531 6.14695 10.1448C6.5064 10.5042 6.70833 10.9917 6.70833 11.5C6.70833 12.0084 6.5064 12.4959 6.14695 12.8553C5.78751 13.2148 5.3 13.4167 4.79167 13.4167C4.28334 13.4167 3.79582 13.2148 3.43638 12.8553C3.07693 12.4959 2.875 12.0084 2.875 11.5C2.875 10.9917 3.07693 10.5042 3.43638 10.1448C3.79582 9.78531 4.28334 9.58337 4.79167 9.58337ZM11.5 9.58337C12.0083 9.58337 12.4958 9.78531 12.8553 10.1448C13.2147 10.5042 13.4167 10.9917 13.4167 11.5C13.4167 12.0084 13.2147 12.4959 12.8553 12.8553C12.4958 13.2148 12.0083 13.4167 11.5 13.4167C10.9917 13.4167 10.5042 13.2148 10.1447 12.8553C9.78527 12.4959 9.58333 12.0084 9.58333 11.5C9.58333 10.9917 9.78527 10.5042 10.1447 10.1448C10.5042 9.78531 10.9917 9.58337 11.5 9.58337ZM18.2083 9.58337C18.7167 9.58337 19.2042 9.78531 19.5636 10.1448C19.9231 10.5042 20.125 10.9917 20.125 11.5C20.125 12.0084 19.9231 12.4959 19.5636 12.8553C19.2042 13.2148 18.7167 13.4167 18.2083 13.4167C17.7 13.4167 17.2125 13.2148 16.853 12.8553C16.4936 12.4959 16.2917 12.0084 16.2917 11.5C16.2917 10.9917 16.4936 10.5042 16.853 10.1448C17.2125 9.78531 17.7 9.58337 18.2083 9.58337Z" fill="#1B1B1B"/>
</g>
</g>
</svg>
