<svg xmlns="http://www.w3.org/2000/svg" width="25" height="25" viewBox="0 0 25 25" fill="none">
  <path d="M12.5007 9.37504C11.6719 9.37504 10.877 9.70428 10.2909 10.2903C9.70489 10.8764 9.37565 11.6712 9.37565 12.5C9.37565 13.3288 9.70489 14.1237 10.2909 14.7098C10.877 15.2958 11.6719 15.625 12.5007 15.625C13.3295 15.625 14.1243 15.2958 14.7104 14.7098C15.2964 14.1237 15.6257 13.3288 15.6257 12.5C15.6257 11.6712 15.2964 10.8764 14.7104 10.2903C14.1243 9.70428 13.3295 9.37504 12.5007 9.37504ZM12.5007 7.29171C13.882 7.29171 15.2067 7.84044 16.1835 8.81719C17.1603 9.79395 17.709 11.1187 17.709 12.5C17.709 13.8814 17.1603 15.2061 16.1835 16.1829C15.2067 17.1596 13.882 17.7084 12.5007 17.7084C11.1193 17.7084 9.79456 17.1596 8.8178 16.1829C7.84105 15.2061 7.29232 13.8814 7.29232 12.5C7.29232 11.1187 7.84105 9.79395 8.8178 8.81719C9.79456 7.84044 11.1193 7.29171 12.5007 7.29171ZM19.2715 7.03129C19.2715 7.37663 19.1343 7.70782 18.8901 7.952C18.6459 8.19619 18.3147 8.33337 17.9694 8.33337C17.6241 8.33337 17.2929 8.19619 17.0487 7.952C16.8045 7.70782 16.6673 7.37663 16.6673 7.03129C16.6673 6.68596 16.8045 6.35477 17.0487 6.11058C17.2929 5.86639 17.6241 5.72921 17.9694 5.72921C18.3147 5.72921 18.6459 5.86639 18.8901 6.11058C19.1343 6.35477 19.2715 6.68596 19.2715 7.03129ZM12.5007 4.16671C9.92357 4.16671 9.50274 4.174 8.30378 4.22712C7.48711 4.26567 6.93919 4.37504 6.43086 4.57296C6.00546 4.72914 5.62087 4.97948 5.30586 5.30525C4.97983 5.62025 4.72914 6.00482 4.57253 6.43025C4.37461 6.94067 4.26523 7.48754 4.22773 8.30317C4.17357 9.45317 4.16628 9.85525 4.16628 12.5C4.16628 15.0782 4.17357 15.498 4.22669 16.6969C4.26523 17.5125 4.37461 18.0615 4.57148 18.5688C4.74857 19.0219 4.9569 19.348 5.30273 19.6938C5.65378 20.0438 5.97982 20.2532 6.42773 20.4261C6.94232 20.625 7.49024 20.7355 8.30274 20.773C9.45274 20.8271 9.85482 20.8334 12.4996 20.8334C15.0777 20.8334 15.4975 20.8261 16.6965 20.773C17.5111 20.7344 18.059 20.625 18.5684 20.4282C18.9934 20.2712 19.3778 20.021 19.6934 19.6959C20.0444 19.3459 20.2538 19.0198 20.4267 18.5709C20.6246 18.0584 20.735 17.5105 20.7725 16.6959C20.8267 15.5469 20.8329 15.1438 20.8329 12.5C20.8329 9.92296 20.8257 9.50212 20.7725 8.30317C20.734 7.48858 20.6236 6.93858 20.4267 6.43025C20.2697 6.00527 20.0195 5.62086 19.6944 5.30525C19.3795 4.97905 18.9949 4.72834 18.5694 4.57192C18.059 4.374 17.5111 4.26462 16.6965 4.22712C15.5475 4.17296 15.1465 4.16671 12.5007 4.16671ZM12.5007 2.08337C15.3309 2.08337 15.684 2.09379 16.7954 2.14587C17.9038 2.19796 18.66 2.37192 19.3236 2.63025C20.0111 2.89483 20.5902 3.25317 21.1694 3.83129C21.6991 4.35202 22.1089 4.9819 22.3704 5.67712C22.6277 6.34067 22.8027 7.09692 22.8548 8.20629C22.9038 9.31671 22.9173 9.66983 22.9173 12.5C22.9173 15.3303 22.9069 15.6834 22.8548 16.7938C22.8027 17.9032 22.6277 18.6584 22.3704 19.323C22.1097 20.0185 21.6997 20.6486 21.1694 21.1688C20.6485 21.6983 20.0187 22.1081 19.3236 22.3698C18.66 22.6271 17.9038 22.8021 16.7954 22.8542C15.684 22.9032 15.3309 22.9167 12.5007 22.9167C9.67044 22.9167 9.31732 22.9063 8.20586 22.8542C7.09753 22.8021 6.34232 22.6271 5.67773 22.3698C4.98224 22.1089 4.35224 21.6989 3.8319 21.1688C3.30214 20.6481 2.89228 20.0182 2.63086 19.323C2.37253 18.6594 2.19857 17.9032 2.14648 16.7938C2.09648 15.6834 2.08398 15.3303 2.08398 12.5C2.08398 9.66983 2.0944 9.31671 2.14648 8.20629C2.19857 7.09587 2.37253 6.34171 2.63086 5.67712C2.89152 4.98148 3.30149 4.35142 3.8319 3.83129C4.35239 3.30132 4.98235 2.89143 5.67773 2.63025C6.34128 2.37192 7.09648 2.19796 8.20586 2.14587C9.31732 2.09692 9.67044 2.08337 12.5007 2.08337Z" fill="black"/>
</svg>