<svg width="13" height="16" viewBox="0 0 13 16" fill="none" xmlns="http://www.w3.org/2000/svg">
<path id="Vector" d="M1.89583 6.87031C1.824 6.87031 1.75512 6.8986 1.70433 6.94895C1.65353 6.99931 1.625 7.06761 1.625 7.13883V14.1204C1.625 14.2686 1.74633 14.3889 1.89583 14.3889H11.1042C11.176 14.3889 11.2449 14.3606 11.2957 14.3102C11.3465 14.2599 11.375 14.1916 11.375 14.1204V7.13883C11.375 7.06761 11.3465 6.99931 11.2957 6.94895C11.2449 6.8986 11.176 6.87031 11.1042 6.87031H10.0208C9.80535 6.87031 9.59868 6.78543 9.44631 6.63436C9.29394 6.48329 9.20833 6.27839 9.20833 6.06474C9.20833 5.8511 9.29394 5.6462 9.44631 5.49513C9.59868 5.34405 9.80535 5.25918 10.0208 5.25918H11.1042C12.1507 5.25918 13 6.10126 13 7.13883V14.1204C13 14.6189 12.8003 15.097 12.4447 15.4495C12.0892 15.802 11.607 16 11.1042 16H1.89583C1.39303 16 0.910815 15.802 0.555277 15.4495C0.199739 15.097 0 14.6189 0 14.1204V7.13883C0 6.10126 0.849333 5.25918 1.89583 5.25918H2.97917C3.19466 5.25918 3.40132 5.34405 3.55369 5.49513C3.70606 5.6462 3.79167 5.8511 3.79167 6.06474C3.79167 6.27839 3.70606 6.48329 3.55369 6.63436C3.40132 6.78543 3.19466 6.87031 2.97917 6.87031H1.89583ZM6.30825 0.078888C6.33341 0.0538816 6.3633 0.0340418 6.3962 0.0205049C6.4291 0.006968 6.46438 0 6.5 0C6.53562 0 6.5709 0.006968 6.6038 0.0205049C6.63671 0.0340418 6.66659 0.0538816 6.69175 0.078888L9.82908 3.18943C9.86706 3.22698 9.89293 3.27487 9.90342 3.32702C9.91391 3.37917 9.90855 3.43324 9.88801 3.48236C9.86747 3.53149 9.83268 3.57346 9.78805 3.60296C9.74343 3.63246 9.69097 3.64816 9.63733 3.64806H7.3125V9.82403C7.3125 10.0377 7.2269 10.2426 7.07452 10.3936C6.92215 10.5447 6.71549 10.6296 6.5 10.6296C6.28451 10.6296 6.07785 10.5447 5.92548 10.3936C5.7731 10.2426 5.6875 10.0377 5.6875 9.82403V3.64806H3.36267C3.30903 3.64816 3.25657 3.63246 3.21195 3.60296C3.16732 3.57346 3.13253 3.53149 3.11199 3.48236C3.09145 3.43324 3.08609 3.37917 3.09658 3.32702C3.10707 3.27487 3.13294 3.22698 3.17092 3.18943L6.30825 0.078888Z" fill="white"/>
</svg>
