<svg xmlns="http://www.w3.org/2000/svg" width="23" height="23" viewBox="0 0 23 23" fill="none">
  <path d="M21.5239 5.75004C20.786 6.08546 19.9906 6.30587 19.1664 6.41129C20.0098 5.90337 20.6614 5.09837 20.9681 4.13046C20.1727 4.60962 19.291 4.94504 18.3614 5.13671C17.6043 4.31254 16.5406 3.83337 15.3331 3.83337C13.081 3.83337 11.241 5.67337 11.241 7.94462C11.241 8.27046 11.2793 8.58671 11.3464 8.88379C7.93475 8.71129 4.89684 7.07254 2.87475 4.59046C2.52017 5.19421 2.31892 5.90337 2.31892 6.65087C2.31892 8.07879 3.03767 9.34379 4.14934 10.0625C3.46892 10.0625 2.83642 9.87087 2.28059 9.58337V9.61212C2.28059 11.6055 3.69892 13.273 5.57725 13.6467C4.9742 13.8117 4.34109 13.8347 3.72767 13.7138C3.98796 14.5308 4.49773 15.2456 5.18531 15.7578C5.87289 16.2701 6.70372 16.554 7.561 16.5696C6.10781 17.72 4.3065 18.3419 2.45309 18.333C2.12725 18.333 1.80142 18.3138 1.47559 18.2755C3.29642 19.4446 5.46225 20.125 7.78142 20.125C15.3331 20.125 19.4827 13.8575 19.4827 8.42379C19.4827 8.24171 19.4827 8.06921 19.4731 7.88712C20.2781 7.31212 20.9681 6.58379 21.5239 5.75004Z" fill="#1B1B1B"/>
</svg>